REM DIRINDEX 1\2\6,1\2\7,1\2\8,1\3\9,1\3\10,1\3\11,1\4\12,1\4\13,1\4\14,1\5\15,1\5\16,1\5\17,1\5\18
REM DIRNAME folder01,folder02,folder03,folder04,folder05,folder06,folder07,folder08,folder09,folder10,folder11,folder12,folder13,folder14,folder15,folder16,folder17,folder18
TITLE ""
FILE "2Q_j_1432-1442.mp3" MP3
  TRACK 01 AUDIO
    TITLE "6:cjc019_0758"
    INDEX 01 00:00:00
  TRACK 02 AUDIO
    TITLE "0:"
    INDEX 01 00:01:05
  TRACK 03 AUDIO
    TITLE "7:cjc019_0759"
    INDEX 01 00:01:69
  TRACK 04 AUDIO
    TITLE "0:"
    INDEX 01 00:03:59
  TRACK 05 AUDIO
    TITLE "8:cjc019_0760"
    INDEX 01 00:04:44
  TRACK 06 AUDIO
    TITLE "0:"
    INDEX 01 00:08:38
  TRACK 07 AUDIO
    TITLE "6:cjc019_0761"
    INDEX 01 00:09:14
  TRACK 08 AUDIO
    TITLE "0:"
    INDEX 01 00:10:33
  TRACK 09 AUDIO
    TITLE "7:cjc019_0762"
    INDEX 01 00:11:25
  TRACK 10 AUDIO
    TITLE "0:"
    INDEX 01 00:13:20
  TRACK 11 AUDIO
    TITLE "8:cjc019_0763"
    INDEX 01 00:14:00
  TRACK 12 AUDIO
    TITLE "0:"
    INDEX 01 00:17:02
  TRACK 13 AUDIO
    TITLE "6:cjc019_0764"
    INDEX 01 00:17:59
  TRACK 14 AUDIO
    TITLE "0:"
    INDEX 01 00:19:52
  TRACK 15 AUDIO
    TITLE "7:cjc019_0765"
    INDEX 01 00:20:36
  TRACK 16 AUDIO
    TITLE "0:"
    INDEX 01 00:22:50
  TRACK 17 AUDIO
    TITLE "8:cjc019_0766"
    INDEX 01 00:23:28
  TRACK 18 AUDIO
    TITLE "0:"
    INDEX 01 00:27:32
  TRACK 19 AUDIO
    TITLE "6:cjc019_0767"
    INDEX 01 00:28:15
  TRACK 20 AUDIO
    TITLE "0:"
    INDEX 01 00:29:50
  TRACK 21 AUDIO
    TITLE "7:cjc019_0768"
    INDEX 01 00:30:36
  TRACK 22 AUDIO
    TITLE "0:"
    INDEX 01 00:34:16
  TRACK 23 AUDIO
    TITLE "8:cjc019_0769"
    INDEX 01 00:34:67
  TRACK 24 AUDIO
    TITLE "0:"
    INDEX 01 00:40:19
  TRACK 25 AUDIO
    TITLE "6:cjc019_0770"
    INDEX 01 00:41:04
  TRACK 26 AUDIO
    TITLE "0:"
    INDEX 01 00:43:23
  TRACK 27 AUDIO
    TITLE "7:cjc019_0771"
    INDEX 01 00:44:07
  TRACK 28 AUDIO
    TITLE "0:"
    INDEX 01 00:46:47
  TRACK 29 AUDIO
    TITLE "8:cjc019_0772"
    INDEX 01 00:47:28
  TRACK 30 AUDIO
    TITLE "0:"
    INDEX 01 00:51:40
  TRACK 31 AUDIO
    TITLE "6:cjc019_0773"
    INDEX 01 00:52:22
  TRACK 32 AUDIO
    TITLE "0:"
    INDEX 01 00:53:49
  TRACK 33 AUDIO
    TITLE "7:cjc019_0774"
    INDEX 01 00:54:34
  TRACK 34 AUDIO
    TITLE "0:"
    INDEX 01 00:57:60
  TRACK 35 AUDIO
    TITLE "8:cjc019_0775"
    INDEX 01 00:58:36
  TRACK 36 AUDIO
    TITLE "0:"
    INDEX 01 01:01:74
  TRACK 37 AUDIO
    TITLE "6:cjc019_0776"
    INDEX 01 01:02:54
  TRACK 38 AUDIO
    TITLE "0:"
    INDEX 01 01:04:15
  TRACK 39 AUDIO
    TITLE "7:cjc019_0777"
    INDEX 01 01:05:01
  TRACK 40 AUDIO
    TITLE "0:"
    INDEX 01 01:07:35
  TRACK 41 AUDIO
    TITLE "8:cjc019_0778"
    INDEX 01 01:08:15
  TRACK 42 AUDIO
    TITLE "0:"
    INDEX 01 01:13:12
  TRACK 43 AUDIO
    TITLE "6:cjc019_0779"
    INDEX 01 01:13:67
  TRACK 44 AUDIO
    TITLE "0:"
    INDEX 01 01:15:56
  TRACK 45 AUDIO
    TITLE "7:cjc019_0780"
    INDEX 01 01:16:40
  TRACK 46 AUDIO
    TITLE "0:"
    INDEX 01 01:17:41
  TRACK 47 AUDIO
    TITLE "8:cjc019_0781"
    INDEX 01 01:18:23
  TRACK 48 AUDIO
    TITLE "0:"
    INDEX 01 01:22:37
  TRACK 49 AUDIO
    TITLE "6:cjc019_0782"
    INDEX 01 01:23:18
  TRACK 50 AUDIO
    TITLE "0:"
    INDEX 01 01:24:71
  TRACK 51 AUDIO
    TITLE "7:cjc019_0783"
    INDEX 01 01:25:53
  TRACK 52 AUDIO
    TITLE "0:"
    INDEX 01 01:28:08
  TRACK 53 AUDIO
    TITLE "8:cjc019_0784"
    INDEX 01 01:28:63
  TRACK 54 AUDIO
    TITLE "0:"
    INDEX 01 01:31:53
  TRACK 55 AUDIO
    TITLE "6:cjc019_0785"
    INDEX 01 01:32:33
  TRACK 56 AUDIO
    TITLE "0:"
    INDEX 01 01:33:62
  TRACK 57 AUDIO
    TITLE "7:cjc019_0786"
    INDEX 01 01:34:44
  TRACK 58 AUDIO
    TITLE "0:"
    INDEX 01 01:38:65
  TRACK 59 AUDIO
    TITLE "8:cjc019_0787"
    INDEX 01 01:39:43
  TRACK 60 AUDIO
    TITLE "0:"
    INDEX 01 01:43:17
  TRACK 61 AUDIO
    TITLE "6:cjc019_0788"
    INDEX 01 01:43:74
  TRACK 62 AUDIO
    TITLE "0:"
    INDEX 01 01:45:71
  TRACK 63 AUDIO
    TITLE "7:cjc019_0789"
    INDEX 01 01:46:47
  TRACK 64 AUDIO
    TITLE "0:"
    INDEX 01 01:49:08
  TRACK 65 AUDIO
    TITLE "8:cjc019_0790"
    INDEX 01 01:49:65
  TRACK 66 AUDIO
    TITLE "0:"
    INDEX 01 01:52:38
